<svg width="146" height="32" viewBox="0 0 146 32" fill="none" xmlns="http://www.w3.org/2000/svg">
<path d="M7.93111 25H1.74361V7.54545H7.98224C9.73793 7.54545 11.2493 7.89489 12.5163 8.59375C13.7834 9.28693 14.7578 10.2841 15.4396 11.5852C16.1271 12.8864 16.4709 14.4432 16.4709 16.2557C16.4709 18.0739 16.1271 19.6364 15.4396 20.9432C14.7578 22.25 13.7777 23.2528 12.4993 23.9517C11.2266 24.6506 9.70384 25 7.93111 25ZM5.43395 21.8381H7.7777C8.86861 21.8381 9.78622 21.6449 10.5305 21.2585C11.2805 20.8665 11.843 20.2614 12.218 19.4432C12.5987 18.6193 12.7891 17.5568 12.7891 16.2557C12.7891 14.9659 12.5987 13.9119 12.218 13.0938C11.843 12.2756 11.2834 11.6733 10.5391 11.2869C9.79474 10.9006 8.87713 10.7074 7.78622 10.7074H5.43395V21.8381ZM25.0511 25.2557C23.7273 25.2557 22.5824 24.9744 21.6165 24.4119C20.6563 23.8437 19.9148 23.054 19.392 22.0426C18.8693 21.0256 18.608 19.8466 18.608 18.5057C18.608 17.1534 18.8693 15.9716 19.392 14.9602C19.9148 13.9432 20.6563 13.1534 21.6165 12.5909C22.5824 12.0227 23.7273 11.7386 25.0511 11.7386C26.375 11.7386 27.517 12.0227 28.4773 12.5909C29.4432 13.1534 30.1875 13.9432 30.7102 14.9602C31.233 15.9716 31.4943 17.1534 31.4943 18.5057C31.4943 19.8466 31.233 21.0256 30.7102 22.0426C30.1875 23.054 29.4432 23.8437 28.4773 24.4119C27.517 24.9744 26.375 25.2557 25.0511 25.2557ZM25.0682 22.4432C25.6705 22.4432 26.1733 22.2727 26.5767 21.9318C26.9801 21.5852 27.2841 21.1136 27.4886 20.517C27.6989 19.9205 27.804 19.2415 27.804 18.4801C27.804 17.7188 27.6989 17.0398 27.4886 16.4432C27.2841 15.8466 26.9801 15.375 26.5767 15.0284C26.1733 14.6818 25.6705 14.5085 25.0682 14.5085C24.4602 14.5085 23.9489 14.6818 23.5341 15.0284C23.125 15.375 22.8153 15.8466 22.6051 16.4432C22.4006 17.0398 22.2983 17.7188 22.2983 18.4801C22.2983 19.2415 22.4006 19.9205 22.6051 20.517C22.8153 21.1136 23.125 21.5852 23.5341 21.9318C23.9489 22.2727 24.4602 22.4432 25.0682 22.4432ZM39.7699 25.2557C38.429 25.2557 37.2756 24.9716 36.3097 24.4034C35.3494 23.8295 34.6108 23.0341 34.0938 22.017C33.5824 21 33.3267 19.8295 33.3267 18.5057C33.3267 17.1648 33.5852 15.9886 34.1023 14.9773C34.625 13.9602 35.3665 13.1676 36.3267 12.5994C37.2869 12.0256 38.429 11.7386 39.7528 11.7386C40.8949 11.7386 41.8949 11.946 42.7528 12.3608C43.6108 12.7756 44.2898 13.358 44.7898 14.108C45.2898 14.858 45.5653 15.7386 45.6165 16.75H42.1903C42.0938 16.0966 41.8381 15.571 41.4233 15.1733C41.0142 14.7699 40.4773 14.5682 39.8125 14.5682C39.25 14.5682 38.7585 14.7216 38.3381 15.0284C37.9233 15.3295 37.5994 15.7699 37.3665 16.3494C37.1335 16.929 37.017 17.6307 37.017 18.4545C37.017 19.2898 37.1307 20 37.358 20.5852C37.5909 21.1705 37.9176 21.6165 38.3381 21.9233C38.7585 22.2301 39.25 22.3835 39.8125 22.3835C40.2273 22.3835 40.5994 22.2983 40.929 22.1278C41.2642 21.9574 41.5398 21.7102 41.7557 21.3864C41.9773 21.0568 42.1222 20.6619 42.1903 20.2017H45.6165C45.5597 21.2017 45.2869 22.0824 44.7983 22.8438C44.3153 23.5994 43.6477 24.1903 42.7955 24.6165C41.9432 25.0426 40.9347 25.2557 39.7699 25.2557ZM63.4098 13.6562H59.6768C59.6087 13.1733 59.4695 12.7443 59.2592 12.3693C59.049 11.9886 58.7791 11.6648 58.4496 11.3977C58.12 11.1307 57.7393 10.9261 57.3075 10.7841C56.8814 10.642 56.4183 10.571 55.9183 10.571C55.0149 10.571 54.228 10.7955 53.5575 11.2443C52.8871 11.6875 52.3672 12.3352 51.9979 13.1875C51.6286 14.0341 51.4439 15.0625 51.4439 16.2727C51.4439 17.517 51.6286 18.5625 51.9979 19.4091C52.3729 20.2557 52.8956 20.8949 53.5661 21.3267C54.2365 21.7585 55.0121 21.9744 55.8928 21.9744C56.3871 21.9744 56.8445 21.9091 57.2649 21.7784C57.6911 21.6477 58.0689 21.4574 58.3984 21.2074C58.728 20.9517 59.0007 20.642 59.2166 20.2784C59.4382 19.9148 59.5916 19.5 59.6768 19.0341L63.4098 19.0511C63.3132 19.8523 63.0717 20.625 62.6854 21.3693C62.3047 22.108 61.7905 22.7699 61.1428 23.3551C60.5007 23.9347 59.7337 24.3949 58.8416 24.7358C57.9553 25.071 56.9524 25.2386 55.8331 25.2386C54.2763 25.2386 52.8842 24.8864 51.657 24.1818C50.4354 23.4773 49.4695 22.4574 48.7592 21.1222C48.0547 19.7869 47.7024 18.1705 47.7024 16.2727C47.7024 14.3693 48.0604 12.75 48.7763 11.4148C49.4922 10.0795 50.4638 9.0625 51.6911 8.36364C52.9183 7.65909 54.299 7.30682 55.8331 7.30682C56.8445 7.30682 57.782 7.44886 58.6456 7.73295C59.5149 8.01705 60.2848 8.43182 60.9553 8.97727C61.6257 9.51704 62.1712 10.179 62.5916 10.9631C63.0178 11.7472 63.2905 12.6449 63.4098 13.6562ZM69.7209 25.2472C68.8857 25.2472 68.1413 25.1023 67.4879 24.8125C66.8345 24.517 66.3175 24.0824 65.9368 23.5085C65.5618 22.929 65.3743 22.2074 65.3743 21.3438C65.3743 20.6165 65.5078 20.0057 65.7749 19.5114C66.0419 19.017 66.4055 18.6193 66.8658 18.3182C67.326 18.017 67.8487 17.7898 68.4339 17.6364C69.0249 17.483 69.6442 17.375 70.2919 17.3125C71.0533 17.233 71.6669 17.1591 72.1328 17.0909C72.5987 17.017 72.9368 16.9091 73.147 16.767C73.3572 16.625 73.4624 16.4148 73.4624 16.1364V16.0852C73.4624 15.5455 73.2919 15.1278 72.951 14.8324C72.6158 14.5369 72.1385 14.3892 71.5192 14.3892C70.8658 14.3892 70.3459 14.5341 69.9595 14.8239C69.5732 15.108 69.3175 15.4659 69.1925 15.8977L65.8345 15.625C66.005 14.8295 66.3402 14.142 66.8402 13.5625C67.3402 12.9773 67.9851 12.5284 68.7749 12.2159C69.5703 11.8977 70.4908 11.7386 71.5362 11.7386C72.2635 11.7386 72.9595 11.8239 73.6243 11.9943C74.2947 12.1648 74.8885 12.429 75.4055 12.7869C75.9283 13.1449 76.3402 13.6051 76.6413 14.1676C76.9425 14.7244 77.093 15.392 77.093 16.1705V25H73.6499V23.1847H73.5476C73.3374 23.5938 73.0561 23.9545 72.7038 24.267C72.3516 24.5739 71.9283 24.8153 71.4339 24.9915C70.9396 25.1619 70.3686 25.2472 69.7209 25.2472ZM70.7607 22.7415C71.2947 22.7415 71.7663 22.6364 72.1754 22.4261C72.5845 22.2102 72.9055 21.9205 73.1385 21.5568C73.3714 21.1932 73.4879 20.7812 73.4879 20.321V18.9318C73.3743 19.0057 73.218 19.0739 73.0192 19.1364C72.826 19.1932 72.6072 19.2472 72.3629 19.2983C72.1186 19.3437 71.8743 19.3864 71.63 19.4261C71.3857 19.4602 71.1641 19.4915 70.9652 19.5199C70.5391 19.5824 70.1669 19.6818 69.8487 19.8182C69.5305 19.9545 69.2834 20.1392 69.1072 20.3722C68.9311 20.5994 68.843 20.8835 68.843 21.2244C68.843 21.7188 69.022 22.0966 69.38 22.358C69.7436 22.6136 70.2038 22.7415 70.7607 22.7415ZM79.9098 25V11.9091H83.4297V14.1932H83.5661C83.8047 13.3807 84.2053 12.767 84.7678 12.3523C85.3303 11.9318 85.978 11.7216 86.7109 11.7216C86.8928 11.7216 87.0888 11.733 87.299 11.7557C87.5092 11.7784 87.6939 11.8097 87.853 11.8494V15.071C87.6825 15.0199 87.4467 14.9744 87.1456 14.9347C86.8445 14.8949 86.5689 14.875 86.3189 14.875C85.7848 14.875 85.3075 14.9915 84.8871 15.2244C84.4723 15.4517 84.1428 15.7699 83.8984 16.179C83.6598 16.5881 83.5405 17.0597 83.5405 17.5938V25H79.9098ZM95.0866 25.2557C93.7401 25.2557 92.581 24.983 91.6094 24.4375C90.6435 23.8864 89.8991 23.108 89.3764 22.1023C88.8537 21.0909 88.5923 19.8949 88.5923 18.5142C88.5923 17.1676 88.8537 15.9858 89.3764 14.9688C89.8991 13.9517 90.6349 13.1591 91.5838 12.5909C92.5384 12.0227 93.6577 11.7386 94.9418 11.7386C95.8054 11.7386 96.6094 11.8778 97.3537 12.1562C98.1037 12.429 98.7571 12.8409 99.3139 13.392C99.8764 13.9432 100.314 14.6364 100.626 15.4716C100.939 16.3011 101.095 17.2727 101.095 18.3864V19.3835H90.0412V17.1335H97.6776C97.6776 16.6108 97.5639 16.1477 97.3366 15.7443C97.1094 15.3409 96.794 15.0256 96.3906 14.7983C95.9929 14.5653 95.5298 14.4489 95.0014 14.4489C94.4503 14.4489 93.9616 14.5767 93.5355 14.8324C93.1151 15.0824 92.7855 15.4205 92.5469 15.8466C92.3082 16.267 92.1861 16.7358 92.1804 17.2528V19.392C92.1804 20.0398 92.2997 20.5994 92.5384 21.071C92.7827 21.5426 93.1264 21.9062 93.5696 22.1619C94.0128 22.4176 94.5384 22.5455 95.1463 22.5455C95.5497 22.5455 95.919 22.4886 96.2543 22.375C96.5895 22.2614 96.8764 22.0909 97.1151 21.8636C97.3537 21.6364 97.5355 21.358 97.6605 21.0284L101.018 21.25C100.848 22.0568 100.499 22.7614 99.9702 23.3636C99.4474 23.9602 98.7713 24.4261 97.9418 24.7614C97.1179 25.0909 96.1662 25.2557 95.0866 25.2557ZM106.311 15.7102V7.98864H108.51V15.7102H106.311ZM103.371 12.9489V10.7585H111.416V12.9489H103.371Z" fill="#0A0050"/>
<path d="M128.683 5.46752C127.405 4.1862 125.721 3.38986 123.92 3.21529C122.119 3.04072 120.313 3.49881 118.813 4.51088C117.312 5.52294 116.211 7.02581 115.699 8.76133C115.186 10.4969 115.294 12.3567 116.004 14.0214H121.19L123.371 10.2043C123.6 9.80317 123.933 9.4718 124.336 9.24547C124.739 9.01914 125.195 8.90635 125.657 8.91914C126.119 8.93192 126.568 9.06979 126.958 9.31805C127.347 9.5663 127.662 9.91563 127.869 10.3288L130.073 14.7399L131.688 12.5211C131.893 12.2387 132.154 12.0015 132.455 11.8241C132.756 11.6468 133.09 11.533 133.437 11.49C133.783 11.4469 134.135 11.4755 134.47 11.5738C134.805 11.6722 135.116 11.8383 135.384 12.0618L137.737 14.0214H143.403C144.065 12.3423 144.128 10.4864 143.583 8.76586C143.037 7.04532 141.916 5.56508 140.408 4.57408C138.899 3.58308 137.095 3.14177 135.3 3.32437C133.504 3.50697 131.826 4.30234 130.548 5.57672L129.67 6.45446L128.684 5.46752H128.683ZM128.925 28.498L120.139 19.1246H122.671C123.121 19.1244 123.563 19.0054 123.952 18.7796C124.341 18.5537 124.663 18.2291 124.886 17.8386L125.437 16.8751L127.387 20.7759C127.583 21.168 127.876 21.503 128.239 21.7487C128.602 21.9943 129.022 22.1423 129.459 22.1784C129.896 22.2145 130.335 22.1375 130.733 21.9548C131.131 21.772 131.476 21.4898 131.734 21.1352L134.214 17.7263L135.18 18.5326C135.639 18.915 136.217 19.1245 136.814 19.1246H139.333L130.409 28.5041C130.313 28.6047 130.198 28.6847 130.07 28.7392C129.942 28.7937 129.804 28.8215 129.666 28.8209C129.527 28.8203 129.389 28.7914 129.262 28.7359C129.135 28.6804 129.02 28.5994 128.925 28.498ZM126.5 11.0136C126.418 10.85 126.294 10.7113 126.14 10.6121C125.987 10.5129 125.809 10.4568 125.626 10.4497C125.444 10.4426 125.262 10.4848 125.101 10.5718C124.94 10.6588 124.806 10.7874 124.712 10.9442L121.948 15.5524H116.062C115.791 15.5524 115.532 15.6599 115.34 15.8513C115.149 16.0427 115.041 16.3023 115.041 16.573C115.041 16.8437 115.149 17.1033 115.34 17.2947C115.532 17.4861 115.791 17.5936 116.062 17.5936H122.526C122.702 17.5936 122.875 17.548 123.028 17.4612C123.181 17.3745 123.31 17.2496 123.4 17.0986L125.506 13.5887L128.757 20.0911C128.836 20.2478 128.953 20.3817 129.098 20.4799C129.244 20.5781 129.411 20.6372 129.586 20.6517C129.761 20.6661 129.936 20.6354 130.095 20.5624C130.255 20.4894 130.393 20.3767 130.496 20.235L133.936 15.5034L136.161 17.3568C136.344 17.5097 136.576 17.5935 136.814 17.5936H142.938C143.209 17.5936 143.468 17.4861 143.66 17.2947C143.851 17.1033 143.959 16.8437 143.959 16.573C143.959 16.3023 143.851 16.0427 143.66 15.8513C143.468 15.6599 143.209 15.5524 142.938 15.5524H137.184L134.406 13.2376C134.298 13.1481 134.174 13.0817 134.04 13.0423C133.906 13.0029 133.765 12.9915 133.626 13.0087C133.488 13.026 133.354 13.0715 133.234 13.1424C133.113 13.2134 133.009 13.3083 132.927 13.4213L129.832 17.6773L126.5 11.0126V11.0136Z" fill="#2CC581"/>
</svg>
